<?xml version="1.0" encoding="UTF-8"?>
<svg width="869px" height="904px" viewBox="0 0 869 904" version="1.1" xmlns="http://www.w3.org/2000/svg" xmlns:xlink="http://www.w3.org/1999/xlink">
    <!-- Generator: Sketch 47.1 (45422) - http://www.bohemiancoding.com/sketch -->
    <title>network_full</title>
    <desc>Created with Sketch.</desc>
    <defs/>
    <g id="Page-1" stroke="none" stroke-width="1" fill="none" fill-rule="evenodd" opacity="0.634270056">
        <g id="6" transform="translate(0.000000, -132.000000)" stroke="#FFFFFF">
            <g id="pic" transform="translate(-199.000000, -32.000000)">
                <g id="network_full">
                    <g id="Network">
                        <ellipse id="Oval-5" stroke-width="2" transform="translate(615.573859, 616.288288) scale(-1, -1) rotate(-330.000000) translate(-615.573859, -616.288288) " cx="615.573859" cy="616.288288" rx="450.857654" ry="450.182754"/>
                        <g id="Group" transform="translate(99.607878, 26.079794)" stroke-width="2">
                            <path d="M210.333976,255.631418 L226.890896,297.65225 L177.220137,315.456088 L216.702022,359.965682 L158.115999,367.501514 L196.324275,422.18473 L145.325182,427.271541 L186.080676,484.498162 L138.957136,490.856676 L177.165412,537.909675 L146.598791,574.789054 L198.871493,590.049486 L161.882101,635.830783 C161.882101,635.830783 188.971512,640.338926 202.516217,642.592998 C211.896477,644.154034 230.656998,647.276107 230.656998,647.276107 L191.215115,712.64185 L245.940308,721.089507 L234.109857,774.692363 L294.337458,756.642539 L288.203436,831.983742 L355.470699,806.293588 L349.467418,875.820638 L415.385056,840.62956 L416.157121,910.092043 L481.612734,883.867452 L480.505769,931.936932 L531.283493,911.844911 L570.257678,943.173985 L584.879555,896.584479 L625.04371,941.453727 L652.380842,885.084511 L694.765207,929.897334 L716.061302,867.186289 L765.042734,906.701752 L784.890924,820.187933 L844.723671,859.886929 L840.929728,782.036852 L913.935917,800.539817 L913.580177,714.636609 L987.449511,689.202556 L905.938522,659.953394 L874.098292,610.356988 L852.446936,581.107826 L829.521971,536.543589 L877.91912,474.230157 L956.88289,391.569481 L973.534335,430.992265 L888.202519,471.637075 L809.238749,474.086096 L860.183117,420.768967 L823.24845,383.889589 L870.371991,386.432995 L904.759439,341.9234 L833.382599,333.021481 L898.336667,287.240184 L958.1963,303.772319 L950.554644,236.466461 L902.157495,279.704352 L932.724116,212.249466 C932.724116,212.249466 901.706549,230.41842 886.197766,239.502897 C877.10168,244.83105 858.909508,255.487358 858.909508,255.487358 L809.238749,235.140115 L779.945738,194.445628 L880.560864,160.109656" id="Path-5" transform="translate(563.203323, 551.641820) scale(-1, -1) rotate(-330.000000) translate(-563.203323, -551.641820) "/>
                            <polyline id="Path-6" transform="translate(603.536499, 514.610902) scale(-1, -1) rotate(-330.000000) translate(-603.536499, -514.610902) " points="283.947654 208.185195 273.758781 271.77033 254.614842 331.485713 243.15236 395.070848 235.416179 448.482361 255.888452 499.350469 287.728681 555.305388 303.011992 630.281203 350.135532 665.888879 412.542382 716.756987 473.675624 749.821257 538.629693 793.059148 587.026842 821.036608 641.792037 807.047878 710.566934 794.330851 774.247393 777.798716 841.748681 730.745716 897.787485 692.594635 971.656818 623.92269 964.015163 571.782879 891.419439 617.564176 840.475071 664.617176 798.445968 707.855068 715.66137 744.640062 644.339256 757.411732 573.877943 789.185038 538.345643 793.53199"/>
                            <polyline id="Path-7" transform="translate(781.886211, 632.271276) scale(-1, -1) rotate(-330.000000) translate(-781.886211, -632.271276) " points="931.535291 923.491193 936.629728 872.623085 865.307613 881.525004 875.496487 826.841788 805.447981 847.189031 811.816027 791.234113 744.31474 797.592626 755.777222 747.996221 694.081663 762.713437 731.578648 694.584708 680.63428 686.954492 703.559246 637.358087 648.79405 632.271276 684.455108 577.58806 627.142694 581.403168 636.107709 527.991655 693.474848 517.818033 646.351308 465.678223 697.295675 464.40652 669.276273 403.364791 711.305376 412.266709 676.917928 341.051359"/>
                            <polyline id="Path-8" transform="translate(761.090170, 607.002194) scale(-1, -1) rotate(-330.000000) translate(-761.090170, -607.002194) " points="886.568039 837.140641 824.106463 790.127382 761.699612 753.248004 703.113589 710.010112 680.188624 656.598599 653.442831 600.64368 635.612302 542.145356 644.477816 481.048983 648.298644 427.731854 663.581954 376.863746"/>
                            <polyline id="Path-9" transform="translate(560.491983, 251.779373) scale(-1, -1) rotate(-330.000000) translate(-560.491983, -251.779373) " points="377.748964 354.787292 362.465653 320.451319 431.24055 338.255157 433.787768 288.658752 498.647311 326.809832 506.288966 275.941725 558.506943 307.734292 587.799955 239.062346 628.555449 263.224698 627.28184 197.096158 688.469806 222.530211 680.828151 148.771455 758.518312 157.673374"/>
                            <polyline id="Path-10" transform="translate(757.440028, 604.871721) scale(-1, -1) rotate(-330.000000) translate(-757.440028, -604.871721) " points="656.844802 375.985106 692.505859 454.885316 641.561491 425.636154 636.52178 478.953283 688.739757 462.421148 687.466148 515.887305 686.192538 571.842224 743.450227 613.808413 814.772342 677.393547 878.358276 771.499547 877.084666 833.758335"/>
                            <polyline id="Path-11" transform="translate(775.657341, 583.749877) scale(-1, -1) rotate(-330.000000) translate(-775.657341, -583.749877) " points="661.079776 430.430221 710.750535 467.309599 650.890903 491.471951 709.476926 520.721113 669.995041 549.970274 768.062948 565.230707 696.740834 604.802518 768.062948 613.704437 720.939408 660.717696 789.714305 659.445993 776.883687 702.589501 827.828055 697.50269 839.290538 737.069534 900.423779 721.809101"/>
                            <polyline id="Path-12" transform="translate(714.204828, 548.910708) scale(-1, -1) rotate(-330.000000) translate(-714.204828, -548.910708) " points="643.519518 410.295114 642.245908 467.521735 693.190276 504.401113 747.955472 569.257951 786.163747 592.148599 770.880437 687.526302"/>
                            <polyline id="Path-13" transform="translate(746.856371, 696.142286) scale(-1, -1) rotate(-330.000000) translate(-746.856371, -696.142286) " points="779.333405 667.528975 714.379336 691.691326 776.691661 724.755596"/>
                            <polyline id="Path-14" transform="translate(733.365745, 579.688785) scale(-1, -1) rotate(-330.000000) translate(-733.365745, -579.688785) " points="629.613858 535.815042 694.567927 516.739502 686.926272 577.781231 748.059513 554.890582 759.521996 641.366366 837.117631 642.638068"/>
                            <polyline id="Path-15" transform="translate(616.416994, 302.178296) scale(-1, -1) rotate(-330.000000) translate(-616.416994, -302.178296) " points="515.801867 306.629256 575.661499 297.727337 644.436396 301.542445 717.03212 305.357553"/>
                            <polyline id="Path-16" transform="translate(560.167400, 321.767135) scale(-1, -1) rotate(-330.000000) translate(-560.167400, -321.767135) " points="458.840843 323.038837 535.257395 315.408621 592.624534 326.853945 661.493956 328.125648"/>
                            <polyline id="Path-17" transform="translate(658.361211, 299.089560) scale(-1, -1) rotate(-330.000000) translate(-658.361211, -299.089560) " points="594.043946 280.041342 638.620268 327.094341 652.629969 271.084779 711.215992 315.594374 722.678475 276.116947"/>
                            <polyline id="Path-18" transform="translate(753.571199, 500.991768) scale(-1, -1) rotate(-330.000000) translate(-753.571199, -500.991768) " points="685.487832 423.465096 685.433107 469.246393 707.084463 516.299393 745.292739 553.084387 821.709291 578.518441"/>
                            <path d="M734.5678,529.465731 L805.889914,544.726163" id="Path-19" transform="translate(770.228857, 537.095947) scale(-1, -1) rotate(-330.000000) translate(-770.228857, -537.095947) "/>
                            <path d="M746.749452,526.300265 L795.146601,494.453054" id="Path-20" transform="translate(770.948027, 510.376659) scale(-1, -1) rotate(-330.000000) translate(-770.948027, -510.376659) "/>
                            <path d="M757.240963,517.942748 L769.977055,451.814208" id="Path-21" transform="translate(763.609009, 484.878478) scale(-1, -1) rotate(-330.000000) translate(-763.609009, -484.878478) "/>
                            <polyline id="Path-22" transform="translate(714.399003, 636.348862) scale(-1, -1) rotate(-330.000000) translate(-714.399003, -636.348862) " points="635.435233 540.335309 793.362773 629.354497 793.362773 732.362416"/>
                            <polyline id="Path-23" transform="translate(627.485700, 366.580992) scale(-1, -1) rotate(-330.000000) translate(-627.485700, -366.580992) " points="544.701102 501.334286 570.173286 421.3114 710.270297 231.827698"/>
                            <polyline id="Path-24" transform="translate(580.303449, 566.881799) scale(-1, -1) rotate(-330.000000) translate(-580.303449, -566.881799) " points="437.016196 504.522416 512.171576 531.320073 587.314518 556.754127 656.089414 596.176911 723.590702 629.241181"/>
                            <polyline id="Path-25" transform="translate(441.197874, 702.145090) scale(-1, -1) rotate(-330.000000) translate(-441.197874, -702.145090) " points="245.081958 826.724762 225.97782 782.215168 276.922188 772.041546 303.573455 801.385093 363.433087 774.679336 404.243307 717.452715 447.546019 674.214823 484.480686 643.693958 537.972272 619.531607 605.473559 583.923932 656.417927 577.565418"/>
                            <polyline id="Path-26" transform="translate(412.179663, 670.823713) scale(-1, -1) rotate(-330.000000) translate(-412.179663, -670.823713) " points="255.471007 809.49395 236.366869 758.625843 326.793122 773.886275 296.226502 730.648383 356.140859 719.203059 334.489503 674.693465 417.2741 673.421762 417.2741 598.391303 474.586514 640.263108 474.586514 574.079924 533.172537 598.187632 536.993364 541.055395 585.445239 579.206475 587.992458 532.153476"/>
                            <path d="M617.128917,630.465894 L647.232766,601.760618" id="Line"/>
                            <polyline id="Path-27" transform="translate(386.329326, 645.682225) scale(-1, -1) rotate(-330.000000) translate(-386.329326, -645.682225) " points="194.773031 772.75811 268.642364 740.965543 299.019933 683.92769 358.879565 639.418096 416.191979 606.353825 472.176058 564.387637 525.667644 544.040393 577.885621 518.606339"/>
                            <polyline id="Path-28" transform="translate(392.535162, 588.184747) scale(-1, -1) rotate(-330.000000) translate(-392.535162, -588.184747) " points="249.958095 690.529493 253.778923 629.487763 335.10086 657.465222 346.563342 598.966898 391.139664 551.913899 467.610941 509.94771 535.112228 485.840002"/>
                            <polyline id="Path-29" transform="translate(389.786360, 534.491111) scale(-1, -1) rotate(-330.000000) translate(-389.786360, -534.491111) " points="287.897624 631.187708 305.728153 559.877973 384.691923 526.813702 422.900199 470.858784 491.675095 437.794514"/>
                            <polyline id="Path-30" transform="translate(418.537087, 497.427409) scale(-1, -1) rotate(-330.000000) translate(-418.537087, -497.427409) " points="324.290007 547.659665 463.113409 499.334963 512.784167 447.195152"/>
                            <polyline id="Path-31" transform="translate(385.389983, 576.023002) scale(-1, -1) rotate(-330.000000) translate(-385.389983, -576.023002) " points="317.015577 635.865058 376.969735 684.189761 399.989226 606.52648 490.415479 607.798182 436.923893 550.516918 370.696215 535.256485 322.299065 512.365837 280.364488 467.856242"/>
                            <polyline id="Path-32" transform="translate(405.262061, 437.065298) scale(-1, -1) rotate(-330.000000) translate(-405.262061, -437.065298) " points="332.029533 473.308825 393.162774 458.048393 439.012705 433.886041 478.49459 400.821771"/>
                            <polyline id="Path-33" transform="translate(420.815869, 449.607900) scale(-1, -1) rotate(-330.000000) translate(-420.815869, -449.607900) " points="368.597892 489.030683 380.060375 430.532359 427.183915 472.498548 445.014444 410.185116 473.033846 446.97011"/>
                            <polyline id="Path-34" transform="translate(450.534360, 844.263821) scale(-1, -1) rotate(-330.000000) translate(-450.534360, -844.263821) " points="365.469349 1031.20412 464.810866 939.641523 535.599371 936.245316 512.020712 867.398447 472.452521 816.286362 492.830268 751.429524 453.348383 715.821849 457.169211 657.323525"/>
                            <polyline id="Path-35" transform="translate(292.789996, 284.074233) scale(-1, -1) rotate(-330.000000) translate(-292.789996, -284.074233) " points="236.798455 245.334493 324.677489 246.606196 348.781538 322.813973"/>
                            <polyline id="Path-36" transform="translate(123.423726, 431.724642) scale(-1, -1) rotate(-330.000000) translate(-123.423726, -431.724642) " points="147.700265 413.736163 94.9491142 427.274895 151.898337 449.713121"/>
                            <path d="M140.451508,462.108323 L191.395875,469.688863" id="Path-37" transform="translate(165.923692, 465.898593) scale(-1, -1) rotate(-330.000000) translate(-165.923692, -465.898593) "/>
                            <path d="M611.23132,701.198286 L669.581029,675.652462" id="Path-38" transform="translate(640.406174, 688.425374) scale(-1, -1) rotate(-330.000000) translate(-640.406174, -688.425374) "/>
                            <polyline id="Path-39" transform="translate(510.224298, 738.543865) scale(-1, -1) rotate(-330.000000) translate(-510.224298, -738.543865) " points="452.11421 835.546683 450.753499 780.922456 512.904135 806.291931 478.516687 755.423823 552.440746 750.337013 525.694953 710.859585 569.695097 641.541046"/>
                            <polyline id="Path-40" transform="translate(268.862564, 772.865515) scale(-1, -1) rotate(-330.000000) translate(-268.862564, -772.865515) " points="200.724472 859.984601 138.317622 825.648628 201.998081 812.931601 256.763277 837.093953 252.942449 781.084391 320.443736 802.648693 292.424334 742.878666 343.368702 755.595693 339.547874 707.270991 391.765851 736.520153 399.407506 685.746429"/>
                            <polyline id="Path-41" transform="translate(141.808926, 712.731484) scale(-1, -1) rotate(-330.000000) translate(-141.808926, -712.731484) " points="104.237455 746.431606 179.380397 751.518417 176.833179 673.944552"/>
                            <path d="M436.559192,628.307847 L537.174318,595.243577" id="Path-42" transform="translate(486.866755, 611.775712) scale(-1, -1) rotate(-330.000000) translate(-486.866755, -611.775712) "/>
                            <path d="M366.183922,573.925371 L503.639189,623.467132" id="Path-43" transform="translate(434.911556, 598.696252) scale(-1, -1) rotate(-330.000000) translate(-434.911556, -598.696252) "/>
                            <path d="M426.717937,666.872272 L420.349891,598.145683" id="Path-44" transform="translate(423.533914, 632.508977) scale(-1, -1) rotate(-330.000000) translate(-423.533914, -632.508977) "/>
                            <polyline id="Path-45" transform="translate(267.894897, 597.689136) scale(-1, -1) rotate(-330.000000) translate(-267.894897, -597.689136) " points="191.478345 705.195206 160.911725 633.979855 170.103103 576.432824 241.149104 590.741963 229.686621 534.787045 311.197609 565.307909 279.357379 515.711504 374.878069 520.703931 331.575356 490.183066"/>
                            <polyline id="Path-46" transform="translate(270.643951, 589.106327) scale(-1, -1) rotate(-330.000000) translate(-270.643951, -589.106327) " points="229.251652 631.755559 241.987744 574.528938 297.029054 599.764288 312.03625 546.457094"/>
                            <path d="M272.904713,576.979376 L288.188024,487.960188" id="Path-47" transform="translate(280.546369, 532.469782) scale(-1, -1) rotate(-330.000000) translate(-280.546369, -532.469782) "/>
                            <polyline id="Path-48" stroke-dasharray="2.1" transform="translate(338.399663, 475.564465) scale(-1, -1) rotate(-330.000000) translate(-338.399663, -475.564465) " points="304.012215 499.090965 372.787111 506.721181 353.682973 444.407749"/>
                            <path d="M362.199215,480.109338 L404.228318,537.390603" id="Path-49" transform="translate(383.213767, 508.749970) scale(-1, -1) rotate(-330.000000) translate(-383.213767, -508.749970) "/>
                            <polyline id="Path-50" transform="translate(186.875030, 561.488437) scale(-1, -1) rotate(-330.000000) translate(-186.875030, -561.488437) " points="163.156546 628.266489 210.593514 594.089479 205.257788 494.710385"/>
                            <polyline id="Path-51" transform="translate(690.789250, 623.346862) scale(-1, -1) rotate(-330.000000) translate(-690.789250, -623.346862) " points="638.006607 618.999262 698.696712 592.086787 687.62264 654.606937 743.571894 618.999262"/>
                            <polyline id="Path-52" transform="translate(275.329228, 814.701148) scale(-1, -1) rotate(-330.000000) translate(-275.329228, -814.701148) " points="170.25647 899.194863 188.086999 866.130593 233.93693 887.749539 233.93693 835.609728 286.154906 855.956972 273.418815 793.737924 324.363182 816.683216 324.363182 755.641486 371.536473 779.803837 380.401987 730.207432"/>
                            <polyline id="Path-53" transform="translate(255.209220, 904.320234) scale(-1, -1) rotate(-330.000000) translate(-255.209220, -904.320234) " points="118.933037 922.759923 195.349588 917.673112 257.756439 907.499491 313.795243 878.250329 331.625772 930.390139 391.485404 908.771193"/>
                            <polyline id="Path-54" transform="translate(364.551711, 844.838294) scale(-1, -1) rotate(-330.000000) translate(-364.551711, -844.838294) " points="313.607343 860.098727 368.372538 829.577862 415.496078 846.109997"/>
                            <polyline id="Path-55" transform="translate(315.061307, 870.595522) scale(-1, -1) rotate(-330.000000) translate(-315.061307, -870.595522) " points="253.239023 868.052116 320.790061 862.965305 376.883591 878.225738"/>
                            <path d="M359,774.532869 L359,728.751572" id="Path-56" transform="translate(359.000000, 751.642220) scale(-1, -1) rotate(-330.000000) translate(-359.000000, -751.642220) "/>
                            <polyline id="Path-57" transform="translate(312.122039, 842.466595) scale(-1, -1) rotate(-330.000000) translate(-312.122039, -842.466595) " points="214.690935 880.617676 269.456131 898.421514 317.85328 867.900649 357.335165 827.206163 409.553142 786.511677"/>
                            <polyline id="Path-58" transform="translate(335.473416, 910.281398) scale(-1, -1) rotate(-330.000000) translate(-335.473416, -910.281398) " points="275.613784 837.794344 315.095669 860.684993 348.209508 887.39075 374.955301 925.54183 395.333049 982.768452"/>
                            <polyline id="Path-59" transform="translate(371.012981, 858.911066) scale(-1, -1) rotate(-330.000000) translate(-371.012981, -858.911066) " points="351.854117 818.21658 385.022682 851.28085 390.171844 899.605553"/>
                            <path d="M271.779566,921.974739 L335.460025,835.498955" id="Path-60" transform="translate(303.619795, 878.736847) scale(-1, -1) rotate(-330.000000) translate(-303.619795, -878.736847) "/>
                            <polyline id="Path-61" transform="translate(277.565009, 923.867586) scale(-1, -1) rotate(-330.000000) translate(-277.565009, -923.867586) " points="171.855446 946.730913 212.61094 916.210048 277.565009 889.504292 308.13163 932.796827 383.274572 958.230881"/>
                            <path d="M273.515633,897.318252 L246.76984,835.00482" id="Path-62" transform="translate(260.142736, 866.161536) scale(-1, -1) rotate(-330.000000) translate(-260.142736, -866.161536) "/>
                            <path d="M110.29891,670.880097 L161.243277,735.736934" id="Path-63" transform="translate(135.771093, 703.308515) scale(-1, -1) rotate(-330.000000) translate(-135.771093, -703.308515) "/>
                            <polyline id="Path-64" transform="translate(227.223023, 775.232470) scale(-1, -1) rotate(-330.000000) translate(-227.223023, -775.232470) " points="128.471048 839.480777 178.236332 807.68821 215.170999 768.210783 264.841757 730.059702 325.974998 710.984162"/>
                            <polyline id="Path-65" transform="translate(311.988152, 929.144592) scale(-1, -1) rotate(-330.000000) translate(-311.988152, -929.144592) " points="278.264871 977.422103 316.418421 934.184211 345.711433 880.867082"/>
                            <path d="M196.952839,544.495298 L228.633868,597.881974" id="Path-66" transform="translate(213.509759, 571.201055) scale(-1, -1) rotate(-330.000000) translate(-213.509759, -571.201055) "/>
                            <polyline id="Path-67" transform="translate(589.298377, 313.901645) scale(-1, -1) rotate(-330.000000) translate(-589.298377, -313.901645) " points="509.725165 292.31002 530.102912 331.732804 587.415326 287.22321 601.370302 335.547912 644.673014 297.342188 668.871589 340.580079"/>
                            <polyline id="Path-68" transform="translate(461.390143, 320.205603) scale(-1, -1) rotate(-330.000000) translate(-461.390143, -320.205603) " points="350.558781 360.29156 321.265769 308.151749 378.632908 314.510263 433.398104 325.900944 475.427207 296.651782 523.824356 281.391349 601.514517 280.119647"/>
                            <polyline id="Path-69" transform="translate(482.523381, 323.029080) scale(-1, -1) rotate(-330.000000) translate(-482.523381, -323.029080) " points="394.007542 356.210088 420.753335 310.428791 450.046346 368.837699 474.244921 320.458353 516.274024 368.783055 520.094852 289.937488 571.03922 317.914947 567.218392 277.220461"/>
                            <polyline id="Path-70" transform="translate(437.011737, 363.596827) scale(-1, -1) rotate(-330.000000) translate(-437.011737, -363.596827) " points="356.110191 404.927164 328.090789 357.874165 402.014847 362.960975 465.695307 334.983516 545.932686 322.266489"/>
                            <polyline id="Path-71" transform="translate(497.244053, 367.473668) scale(-1, -1) rotate(-330.000000) translate(-497.244053, -367.473668) " points="470.49826 382.098249 517.621801 340.13206 523.989847 394.815276"/>
                            <polyline id="Path-72" transform="translate(460.457006, 386.615452) scale(-1, -1) rotate(-330.000000) translate(-460.457006, -386.615452) " points="410.149443 353.551182 457.272983 391.702263 510.764569 419.679722"/>
                            <polyline id="Path-73" transform="translate(396.283564, 381.868412) scale(-1, -1) rotate(-330.000000) translate(-396.283564, -381.868412) " points="336.423932 416.204385 349.160024 360.249466 397.557173 389.498628 456.143196 347.53244"/>
                            <polyline id="Path-74" transform="translate(376.858873, 363.293948) scale(-1, -1) rotate(-330.000000) translate(-376.858873, -363.293948) " points="344.381839 418.012285 354.570712 364.600772 347.58065 308.575612 409.335907 320.091177"/>
                            <polyline id="Path-75" transform="translate(370.482951, 342.685037) scale(-1, -1) rotate(-330.000000) translate(-370.482951, -342.685037) " points="331.001066 328.060456 366.662124 368.754942 409.964836 316.615131"/>
                            <path d="M255.364516,317.686641 L312.319983,268.369515" id="Path-76" transform="translate(283.711239, 292.923695) scale(-1, -1) rotate(-330.000000) translate(-283.711239, -292.923695) "/>
                            <path d="M253.018673,515.263145 L236.461754,465.612096" id="Path-77" transform="translate(244.740214, 490.437621) scale(-1, -1) rotate(-330.000000) translate(-244.740214, -490.437621) "/>
                            <polygon id="Path-78" transform="translate(499.474494, 892.321941) scale(-1, -1) rotate(-330.000000) translate(-499.474494, -892.321941) " points="479.706189 824.921698 515.367246 852.899157 519.242799 899.952157 510.327535 959.722183 479.760914 913.940886 481.034523 868.159589"/>
                            <polyline id="Path-79" transform="translate(494.705773, 900.527340) scale(-1, -1) rotate(-330.000000) translate(-494.705773, -900.527340) " points="476.23844 930.365161 513.173107 917.648134 476.23844 885.949951 510.625888 870.689519"/>
                            <polyline id="Path-80" transform="translate(514.917343, 940.719792) scale(-1, -1) rotate(-330.000000) translate(-514.917343, -940.719792) " points="533.994118 906.38382 498.278335 934.361279 535.267727 950.893414 494.566958 975.055765"/>
                            <polygon id="Path-81" transform="translate(438.769559, 964.301435) scale(-1, -1) rotate(-330.000000) translate(-438.769559, -964.301435) " points="421.575835 940.139084 457.236892 927.422057 457.236892 969.388246 440.679973 1001.18081 420.302226 978.290165"/>
                            <polyline id="Path-82" transform="translate(436.430452, 969.527288) scale(-1, -1) rotate(-330.000000) translate(-436.430452, -969.527288) " points="419.823782 951.060277 454.260981 979.09238 418.599923 987.994299"/>
                            <path d="M662.95637,571.018593 L716.398205,582.518561" id="Path-83" transform="translate(689.677288, 576.768577) scale(-1, -1) rotate(-330.000000) translate(-689.677288, -576.768577) "/>
                            <path d="M600.100032,702.018877 L676.566334,721.094417" id="Path-84" transform="translate(638.333183, 711.556647) scale(-1, -1) rotate(-330.000000) translate(-638.333183, -711.556647) "/>
                            <polyline id="Path-85" transform="translate(529.458532, 919.199111) scale(-1, -1) rotate(-330.000000) translate(-529.458532, -919.199111) " points="513.89662 887.771661 509.71759 926.464209 549.199475 950.62656"/>
                            <path d="M697.596468,524.501375 L738.351962,500.339024" id="Path-86" transform="translate(717.974215, 512.420199) scale(-1, -1) rotate(-330.000000) translate(-717.974215, -512.420199) "/>
                            <polyline id="Path-87" transform="translate(266.426297, 409.807788) scale(-1, -1) rotate(-330.000000) translate(-266.426297, -409.807788) " points="227.581217 463.810444 305.271378 413.031753 255.600619 355.805132"/>
                            <path d="M227.312501,411.972306 L327.977378,404.34209" id="Path-88" transform="translate(277.644940, 408.157198) scale(-1, -1) rotate(-330.000000) translate(-277.644940, -408.157198) "/>
                            <path d="M134.319646,514.432451 L220.260904,518.88341" id="Path-89" transform="translate(177.290275, 516.657931) scale(-1, -1) rotate(-330.000000) translate(-177.290275, -516.657931) "/>
                            <path d="M125.562383,504.984073 L177.143555,552.009751" id="Path-90" transform="translate(151.352969, 528.496912) scale(-1, -1) rotate(-330.000000) translate(-151.352969, -528.496912) "/>
                            <path d="M101.720157,583.163447 L155.848548,546.91992" id="Path-91" transform="translate(128.784352, 565.041684) scale(-1, -1) rotate(-330.000000) translate(-128.784352, -565.041684) "/>
                            <path d="M177.41776,496.730383 L243.598175,499.273788" id="Path-92" transform="translate(210.507967, 498.002085) scale(-1, -1) rotate(-330.000000) translate(-210.507967, -498.002085) "/>
                            <path d="M707.625164,364.271358 L763.602793,329.859741" id="Path-93" transform="translate(735.917614, 347.012894) scale(-1, -1) rotate(-330.000000) translate(-735.917614, -347.012894) "/>
                            <path d="M643.797979,393.509108 L734.224231,376.341121" id="Path-94" stroke-dasharray="2.1,2.1" transform="translate(689.011105, 384.925114) scale(-1, -1) rotate(-330.000000) translate(-689.011105, -384.925114) "/>
                            <path d="M690.869583,358.297679 L742.450756,390.726098" id="Path-95" transform="translate(716.660170, 374.511888) scale(-1, -1) rotate(-330.000000) translate(-716.660170, -374.511888) "/>
                            <path d="M622.075924,384.434015 L697.246229,458.828623" id="Path-96" transform="translate(659.661077, 421.631319) scale(-1, -1) rotate(-330.000000) translate(-659.661077, -421.631319) "/>
                            <path d="M564.156869,430.584065 L684.512938,444.572794" id="Path-97" transform="translate(624.334903, 437.578430) scale(-1, -1) rotate(-330.000000) translate(-624.334903, -437.578430) "/>
                            <path d="M639.048638,437.018572 L628.22296,370.25418" id="Path-98" transform="translate(633.635799, 403.636376) scale(-1, -1) rotate(-330.000000) translate(-633.635799, -403.636376) "/>
                            <path d="M670.427861,700.496938 L706.725723,696.045978" id="Path-99" transform="translate(688.576792, 698.271458) scale(-1, -1) rotate(-330.000000) translate(-688.576792, -698.271458) "/>
                            <path d="M682.280774,688.051328 L655.534981,650.536099" id="Path-100" transform="translate(668.907877, 669.293713) scale(-1, -1) rotate(-330.000000) translate(-668.907877, -669.293713) "/>
                            <path d="M664.407871,759.420946 L740.187618,749.883175" id="Path-101" transform="translate(702.297745, 754.652060) scale(-1, -1) rotate(-330.000000) translate(-702.297745, -754.652060) "/>
                            <path d="M679.186961,747.424936 L691.923053,699.100233" id="Path-102" transform="translate(685.555007, 723.262585) scale(-1, -1) rotate(-330.000000) translate(-685.555007, -723.262585) "/>
                            <path d="M595.305207,455.292093 L694.74125,537.952768" id="Path-103" transform="translate(645.023228, 496.622431) scale(-1, -1) rotate(-330.000000) translate(-645.023228, -496.622431) "/>
                            <polygon id="Path-2529" transform="translate(213.746840, 326.316160) rotate(-330.000000) translate(-213.746840, -326.316160) " points="229.004039 286.700833 262.602044 365.931487 164.891635 321.305533"/>
                            <polyline id="Path-2530" stroke-dasharray="2.1" transform="translate(167.001420, 402.897258) rotate(-330.000000) translate(-167.001420, -402.897258) " points="174.916257 452.515842 218.674076 353.278673 115.328764 431.946772"/>
                            <polyline id="Path-2531" transform="translate(127.726555, 513.972617) rotate(-330.000000) translate(-127.726555, -513.972617) " points="132.602343 488.844583 74.2824332 525.751238 181.170677 539.100652"/>
                            <polyline id="Path-104" transform="translate(677.228265, 500.417967) scale(-1, -1) rotate(-330.000000) translate(-677.228265, -500.417967) " points="657.487323 498.411061 696.969208 480.607224 694.421989 520.228711"/>
                            <polyline id="Path-105" transform="translate(736.660109, 457.525278) scale(-1, -1) rotate(-330.000000) translate(-736.660109, -457.525278) " points="694.631006 480.415926 734.112891 460.068683 778.689212 434.634629"/>
                            <path d="M564.409667,610.614422 L498.181989,511.421611" id="Path-106" transform="translate(531.295828, 561.018017) scale(-1, -1) rotate(-330.000000) translate(-531.295828, -561.018017) "/>
                            <path d="M647.331714,580.389704 L565.766,591.835029" id="Path-107" transform="translate(606.548857, 586.112366) scale(-1, -1) rotate(-330.000000) translate(-606.548857, -586.112366) "/>
                            <path d="M657.147677,463.267761 L482.553767,487.430112" id="Path-108" transform="translate(569.850722, 475.348937) scale(-1, -1) rotate(-330.000000) translate(-569.850722, -475.348937) "/>
                            <polyline id="Path-109" transform="translate(572.047771, 444.248764) scale(-1, -1) rotate(-330.000000) translate(-572.047771, -444.248764) " points="620.116568 441.069507 587.002729 411.820345 532.237534 476.677183 523.978974 421.169347"/>
                            <polyline id="Path-110" transform="translate(620.061612, 549.063998) scale(-1, -1) rotate(-330.000000) translate(-620.061612, -549.063998) " points="652.58591 505.826106 572.34853 566.867836 667.774694 592.30189"/>
                            <polyline id="Path-111" transform="translate(558.724020, 513.979270) scale(-1, -1) rotate(-330.000000) translate(-558.724020, -513.979270) " points="591.81461 507.907004 595.635438 549.873193 521.812601 470.455132 534.502196 557.503409"/>
                            <polyline id="Path-2616" points="486.532138 757.107143 503.334287 807.516409 411.592477 793.513835"/>
                            <polyline id="Path-2617" points="504.704384 807.516409 546.709755 741.004183 583.114411 796.31435 618.706853 724.201094 650.993013 794.914093 669.865348 740.304054 732.121356 832.020914"/>
                            <polygon id="Path-2618" points="505.992439 808.186454 523.494677 826.340573 583.702377 796.935167"/>
                            <polygon id="Path-2619" points="582.950327 796.31435 650.859011 796.31435 706.166084 794.914093 660.660265 832.020914"/>
                            <path d="M411.370964,793.595882 L507.983319,841.934846" id="Path-2620"/>
                        </g>
                        <g id="dots" opacity="0.440240205" transform="translate(322.000000, 224.000000)" stroke-width="1.96472021">
                            <ellipse id="Oval-1" fill="#DCF2F9" transform="translate(522.012317, 225.904642) scale(-1, -1) rotate(-330.000000) translate(-522.012317, -225.904642) " cx="522.012317" cy="225.904642" rx="8.78537308" ry="8.78509579"/>
                            <ellipse id="Oval-1" fill="#F7A696" transform="translate(12.000904, 192.000803) scale(-1, -1) rotate(-330.000000) translate(-12.000904, -192.000803) " cx="12.0009042" cy="192.000803" rx="8.78537308" ry="8.78509579"/>
                            <ellipse id="Oval-1" fill="#FDE699" transform="translate(429.000904, 21.000803) scale(-1, -1) rotate(-330.000000) translate(-429.000904, -21.000803) " cx="429.000904" cy="21.0008027" rx="8.78537308" ry="8.78509579"/>
                            <ellipse id="Oval-1-Copy-5" fill="#FDE699" transform="translate(26.000904, 264.000803) scale(-1, -1) rotate(-330.000000) translate(-26.000904, -264.000803) " cx="26.0009042" cy="264.000803" rx="8.78537308" ry="8.78509579"/>
                            <ellipse id="Oval-1-Copy-9" fill="#FFD7BC" transform="translate(243.000904, 185.000803) scale(-1, -1) rotate(-330.000000) translate(-243.000904, -185.000803) " cx="243.000904" cy="185.000803" rx="8.78537308" ry="8.78509579"/>
                            <ellipse id="Oval-1-Copy-11" fill="#FFD7BC" transform="translate(284.000904, 12.000803) scale(-1, -1) rotate(-330.000000) translate(-284.000904, -12.000803) " cx="284.000904" cy="12.0008027" rx="8.78537308" ry="8.78509579"/>
                            <ellipse id="Oval-1-Copy-6" fill="#D0C8FF" transform="translate(398.000904, 62.000803) scale(-1, -1) rotate(-330.000000) translate(-398.000904, -62.000803) " cx="398.000904" cy="62.0008027" rx="8.78537308" ry="8.78509579"/>
                            <ellipse id="Oval-1-Copy-7" fill="#D0C8FF" transform="translate(322.000904, 267.000803) scale(-1, -1) rotate(-330.000000) translate(-322.000904, -267.000803) " cx="322.000904" cy="267.000803" rx="8.78537308" ry="8.78509579"/>
                            <ellipse id="Oval-1-Copy" fill="#FFFFFF" transform="translate(214.000904, 16.000803) scale(-1, -1) rotate(-330.000000) translate(-214.000904, -16.000803) " cx="214.000904" cy="16.0008027" rx="8.78537308" ry="8.78509579"/>
                            <ellipse id="Oval-1-Copy-14" fill="#FFFFFF" transform="translate(99.000904, 87.000803) scale(-1, -1) rotate(-330.000000) translate(-99.000904, -87.000803) " cx="99.0009042" cy="87.0008027" rx="8.78537308" ry="8.78509579"/>
                            <ellipse id="Oval-1-Copy-3" fill="#FFFFFF" transform="translate(265.000904, 131.000803) scale(-1, -1) rotate(-330.000000) translate(-265.000904, -131.000803) " cx="265.000904" cy="131.000803" rx="8.78537308" ry="8.78509579"/>
                            <ellipse id="Oval-1-Copy-4" fill="#F7A696" transform="translate(427.000904, 129.000803) scale(-1, -1) rotate(-330.000000) translate(-427.000904, -129.000803) " cx="427.000904" cy="129.000803" rx="8.78537308" ry="8.78509579"/>
                            <ellipse id="Oval-1-Copy-2" fill="#DCF2F9" transform="translate(184.389448, 83.924841) scale(-1, -1) rotate(-330.000000) translate(-184.389448, -83.924841) " cx="184.389448" cy="83.9248412" rx="8.78537308" ry="8.78509579"/>
                            <ellipse id="Oval-1" fill="#DCF2F9" transform="translate(103.000904, 234.000803) scale(-1, -1) rotate(-330.000000) translate(-103.000904, -234.000803) " cx="103.000904" cy="234.000803" rx="8.78537308" ry="8.78509579"/>
                            <ellipse id="Oval-1-Copy-13" fill="#DCF2F9" transform="translate(401.000904, 241.000803) scale(-1, -1) rotate(-330.000000) translate(-401.000904, -241.000803) " cx="401.000904" cy="241.000803" rx="8.78537308" ry="8.78509579"/>
                            <ellipse id="Oval-1-Copy-10" fill="#DCF2F9" transform="translate(118.000904, 37.000803) scale(-1, -1) rotate(-330.000000) translate(-118.000904, -37.000803) " cx="118.000904" cy="37.0008027" rx="8.78537308" ry="8.78509579"/>
                            <ellipse id="Oval-1-Copy-8" fill="#08B5E5" transform="translate(185.000904, 84.000803) scale(-1, -1) rotate(-330.000000) translate(-185.000904, -84.000803) " cx="185.000904" cy="84.0008027" rx="8.78537308" ry="8.78509579"/>
                            <ellipse id="Oval-1-Copy-12" fill="#08B5E5" transform="translate(517.000904, 258.000803) scale(-1, -1) rotate(-330.000000) translate(-517.000904, -258.000803) " cx="517.000904" cy="258.000803" rx="8.78537308" ry="8.78509579"/>
                        </g>
                    </g>
                </g>
            </g>
        </g>
    </g>
</svg>